<svg width="77" height="37" viewBox="0 0 77 37" fill="none" xmlns="http://www.w3.org/2000/svg">
<path d="M15.975 13.55V18H1.425V0.499999H15.65V4.95H7.225V7H14.625V11.25H7.225V13.55H15.975ZM26.6213 18.4C23.938 18.4 21.8463 17.675 20.3463 16.225C18.8463 14.775 18.0963 12.7417 18.0963 10.125V0.499999H23.9963V9.95C23.9963 11.2333 24.2213 12.1667 24.6713 12.75C25.138 13.3333 25.8046 13.625 26.6713 13.625C27.538 13.625 28.1963 13.3333 28.6463 12.75C29.113 12.1667 29.3463 11.2333 29.3463 9.95V0.499999H35.1463V10.125C35.1463 12.7417 34.3963 14.775 32.8963 16.225C31.3963 17.675 29.3046 18.4 26.6213 18.4ZM45.3508 13.6H43.7508V18H37.8508V0.499999H46.2758C47.8924 0.499999 49.3008 0.766666 50.5008 1.3C51.7008 1.83333 52.6258 2.6 53.2758 3.6C53.9258 4.6 54.2508 5.76667 54.2508 7.1C54.2508 8.35 53.9674 9.44167 53.4008 10.375C52.8341 11.3083 52.0174 12.05 50.9508 12.6L54.6258 18H48.3258L45.3508 13.6ZM48.3008 7.1C48.3008 6.45 48.1008 5.95 47.7008 5.6C47.3008 5.23333 46.7008 5.05 45.9008 5.05H43.7508V9.15H45.9008C46.7008 9.15 47.3008 8.975 47.7008 8.625C48.1008 8.25833 48.3008 7.75 48.3008 7.1ZM65.6537 18.4C63.7704 18.4 62.0787 18.0083 60.5787 17.225C59.0787 16.4417 57.9037 15.3583 57.0537 13.975C56.2037 12.575 55.7787 11 55.7787 9.25C55.7787 7.5 56.2037 5.93333 57.0537 4.55C57.9037 3.15 59.0787 2.05833 60.5787 1.275C62.0787 0.491666 63.7704 0.0999995 65.6537 0.0999995C67.537 0.0999995 69.2287 0.491666 70.7287 1.275C72.2287 2.05833 73.4037 3.15 74.2537 4.55C75.1037 5.93333 75.5287 7.5 75.5287 9.25C75.5287 11 75.1037 12.575 74.2537 13.975C73.4037 15.3583 72.2287 16.4417 70.7287 17.225C69.2287 18.0083 67.537 18.4 65.6537 18.4ZM65.6537 13.625C66.387 13.625 67.0454 13.45 67.6287 13.1C68.2287 12.7333 68.7037 12.225 69.0537 11.575C69.4037 10.9083 69.5787 10.1333 69.5787 9.25C69.5787 8.36667 69.4037 7.6 69.0537 6.95C68.7037 6.28333 68.2287 5.775 67.6287 5.425C67.0454 5.05833 66.387 4.875 65.6537 4.875C64.9204 4.875 64.2537 5.05833 63.6537 5.425C63.0704 5.775 62.6037 6.28333 62.2537 6.95C61.9037 7.6 61.7287 8.36667 61.7287 9.25C61.7287 10.1333 61.9037 10.9083 62.2537 11.575C62.6037 12.225 63.0704 12.7333 63.6537 13.1C64.2537 13.45 64.9204 13.625 65.6537 13.625Z" fill="black"/>
<path d="M33.83 21.902V36H32.899V33.663C32.5063 34.4357 31.9553 35.031 31.246 35.449C30.5367 35.867 29.7323 36.076 28.833 36.076C27.9083 36.076 27.0723 35.8607 26.325 35.43C25.5777 34.9993 24.9887 34.404 24.558 33.644C24.14 32.884 23.931 32.0163 23.931 31.041C23.931 30.0657 24.14 29.198 24.558 28.438C24.9887 27.6653 25.5777 27.07 26.325 26.652C27.0723 26.2213 27.9083 26.006 28.833 26.006C29.7197 26.006 30.5113 26.215 31.208 26.633C31.9173 27.051 32.4747 27.6337 32.88 28.381V21.902H33.83ZM28.89 35.221C29.65 35.221 30.3277 35.0437 30.923 34.689C31.531 34.3343 32.006 33.8403 32.348 33.207C32.7027 32.5737 32.88 31.8517 32.88 31.041C32.88 30.2303 32.7027 29.5083 32.348 28.875C32.006 28.2417 31.531 27.7477 30.923 27.393C30.3277 27.0383 29.65 26.861 28.89 26.861C28.13 26.861 27.446 27.0383 26.838 27.393C26.2427 27.7477 25.7677 28.2417 25.413 28.875C25.071 29.5083 24.9 30.2303 24.9 31.041C24.9 31.8517 25.071 32.5737 25.413 33.207C25.7677 33.8403 26.2427 34.3343 26.838 34.689C27.446 35.0437 28.13 35.221 28.89 35.221ZM46.2143 31.269H37.6833C37.7086 32.0417 37.905 32.732 38.2723 33.34C38.6396 33.9353 39.1336 34.3977 39.7543 34.727C40.3876 35.0563 41.097 35.221 41.8823 35.221C42.5283 35.221 43.1236 35.107 43.6683 34.879C44.2256 34.6383 44.688 34.29 45.0553 33.834L45.6063 34.461C45.1756 34.9803 44.631 35.3793 43.9723 35.658C43.3263 35.9367 42.6233 36.076 41.8633 36.076C40.8753 36.076 39.995 35.8607 39.2223 35.43C38.4496 34.9993 37.8416 34.404 37.3983 33.644C36.9676 32.884 36.7523 32.0163 36.7523 31.041C36.7523 30.0783 36.955 29.217 37.3603 28.457C37.7783 27.6843 38.3483 27.0827 39.0703 26.652C39.7923 26.2213 40.603 26.006 41.5023 26.006C42.4016 26.006 43.206 26.2213 43.9153 26.652C44.6373 27.07 45.201 27.659 45.6063 28.419C46.0243 29.179 46.2333 30.0403 46.2333 31.003L46.2143 31.269ZM41.5023 26.842C40.8056 26.842 40.1786 27.0003 39.6213 27.317C39.064 27.621 38.6143 28.058 38.2723 28.628C37.943 29.1853 37.753 29.8187 37.7023 30.528H45.3023C45.2643 29.8187 45.0743 29.1853 44.7323 28.628C44.3903 28.0707 43.9406 27.6337 43.3833 27.317C42.826 27.0003 42.199 26.842 41.5023 26.842ZM53.1052 36.076C52.1425 36.076 51.2812 35.8607 50.5212 35.43C49.7612 34.9993 49.1659 34.404 48.7352 33.644C48.3045 32.8713 48.0892 32.0037 48.0892 31.041C48.0892 30.0657 48.3045 29.198 48.7352 28.438C49.1659 27.6653 49.7612 27.07 50.5212 26.652C51.2812 26.2213 52.1425 26.006 53.1052 26.006C53.9032 26.006 54.6252 26.1643 55.2712 26.481C55.9299 26.785 56.4619 27.2347 56.8672 27.83L56.1642 28.343C55.8095 27.849 55.3662 27.4817 54.8342 27.241C54.3149 26.9877 53.7385 26.861 53.1052 26.861C52.3325 26.861 51.6359 27.0383 51.0152 27.393C50.4072 27.735 49.9259 28.2227 49.5712 28.856C49.2292 29.4893 49.0582 30.2177 49.0582 31.041C49.0582 31.8643 49.2292 32.5927 49.5712 33.226C49.9259 33.8593 50.4072 34.3533 51.0152 34.708C51.6359 35.05 52.3325 35.221 53.1052 35.221C53.7385 35.221 54.3149 35.1007 54.8342 34.86C55.3662 34.6067 55.8095 34.233 56.1642 33.739L56.8672 34.252C56.4619 34.8473 55.9299 35.3033 55.2712 35.62C54.6252 35.924 53.9032 36.076 53.1052 36.076ZM63.4203 36.076C62.4829 36.076 61.6343 35.8607 60.8743 35.43C60.1269 34.9993 59.5379 34.404 59.1073 33.644C58.6766 32.8713 58.4613 32.0037 58.4613 31.041C58.4613 30.0783 58.6766 29.217 59.1073 28.457C59.5379 27.6843 60.1269 27.0827 60.8743 26.652C61.6343 26.2213 62.4829 26.006 63.4203 26.006C64.3576 26.006 65.1999 26.2213 65.9473 26.652C66.7073 27.0827 67.3026 27.6843 67.7333 28.457C68.1639 29.217 68.3793 30.0783 68.3793 31.041C68.3793 32.0037 68.1639 32.8713 67.7333 33.644C67.3026 34.404 66.7073 34.9993 65.9473 35.43C65.1999 35.8607 64.3576 36.076 63.4203 36.076ZM63.4203 35.221C64.1803 35.221 64.8579 35.0437 65.4533 34.689C66.0613 34.3343 66.5363 33.8403 66.8783 33.207C67.2329 32.5737 67.4103 31.8517 67.4103 31.041C67.4103 30.2303 67.2329 29.5083 66.8783 28.875C66.5363 28.2417 66.0613 27.7477 65.4533 27.393C64.8579 27.0383 64.1803 26.861 63.4203 26.861C62.6603 26.861 61.9763 27.0383 61.3683 27.393C60.7729 27.7477 60.2979 28.2417 59.9433 28.875C59.6013 29.5083 59.4303 30.2303 59.4303 31.041C59.4303 31.8517 59.6013 32.5737 59.9433 33.207C60.2979 33.8403 60.7729 34.3343 61.3683 34.689C61.9763 35.0437 62.6603 35.221 63.4203 35.221ZM72.2385 28.248C72.5425 27.526 73.0175 26.975 73.6635 26.595C74.3095 26.2023 75.0948 26.006 76.0195 26.006V26.937L75.7915 26.918C74.6895 26.918 73.8282 27.2663 73.2075 27.963C72.5868 28.647 72.2765 29.6033 72.2765 30.832V36H71.3265V26.082H72.2385V28.248Z" fill="black"/>
</svg>
